HIERARCHY
ROOT RootJoint
{
    OFFSET   0.000000   0.000000   0.000000
    CHANNELS 6 Xposition Yposition Zposition Xrotation Yrotation Zrotation
    JOINT pelvis_lowerback
    {
        OFFSET   0.000000   0.093605   0.000000
        CHANNELS 3 Xrotation Yrotation Zrotation
        JOINT lowerback_torso
        {
            OFFSET   0.000000   0.100000   0.000000
            CHANNELS 3 Xrotation Yrotation Zrotation
            JOINT torso_head
            {
                OFFSET   0.000000   0.282350   0.000000
                CHANNELS 3 Xrotation Yrotation Zrotation
                End Site
                {
                    OFFSET   0.000000   0.192650   0.000000
                }
            }
            JOINT rTorso_Clavicle
            {
                OFFSET  -0.001000   0.157500   0.000000
                CHANNELS 3 Xrotation Yrotation Zrotation
                JOINT rShoulder
                {
                    OFFSET  -0.117647   0.000000   0.000000
                    CHANNELS 3 Xrotation Yrotation Zrotation
                    JOINT rElbow
                    {
                        OFFSET  -0.245000   0.000000   0.000000
                        CHANNELS 3 Xrotation Yrotation Zrotation
                        JOINT rWrist
                        {
                            OFFSET  -0.240000   0.000000   0.000000
                            CHANNELS 3 Xrotation Yrotation Zrotation
                            End Site
                            {
                                OFFSET  -0.116353  -0.002500   0.000000
                            }
                        }
                    }
                }
            }
            JOINT lTorso_Clavicle
            {
                OFFSET   0.001000   0.157500   0.000000
                CHANNELS 3 Xrotation Yrotation Zrotation
                JOINT lShoulder
                {
                    OFFSET   0.117647   0.000000   0.000000
                    CHANNELS 3 Xrotation Yrotation Zrotation
                    JOINT lElbow
                    {
                        OFFSET   0.245000   0.000000   0.000000
                        CHANNELS 3 Xrotation Yrotation Zrotation
                        JOINT lWrist
                        {
                            OFFSET   0.240000   0.000000   0.000000
                            CHANNELS 3 Xrotation Yrotation Zrotation
                            End Site
                            {
                                OFFSET   0.116353  -0.002500   0.000000
                            }
                        }
                    }
                }
            }
        }
    }
    JOINT rHip
    {
        OFFSET  -0.100000  -0.051395   0.000000
        CHANNELS 3 Xrotation Yrotation Zrotation
        JOINT rKnee
        {
            OFFSET   0.000000  -0.410000   0.000000
            CHANNELS 3 Xrotation Yrotation Zrotation
            JOINT rAnkle
            {
                OFFSET   0.000000  -0.390000   0.000000
                CHANNELS 3 Xrotation Yrotation Zrotation
                JOINT rToeJoint
                {
                    OFFSET   0.000000  -0.050000   0.130000
                    CHANNELS 3 Xrotation Yrotation Zrotation
                    End Site
                    {
                        OFFSET  -0.010000   0.002000   0.060000
                    }
                }
            }
        }
    }
    JOINT lHip
    {
        OFFSET   0.100000  -0.051395   0.000000
        CHANNELS 3 Xrotation Yrotation Zrotation
        JOINT lKnee
        {
            OFFSET   0.000000  -0.410000   0.000000
            CHANNELS 3 Xrotation Yrotation Zrotation
            JOINT lAnkle
            {
                OFFSET   0.000000  -0.390000   0.000000
                CHANNELS 3 Xrotation Yrotation Zrotation
                JOINT lToeJoint
                {
                    OFFSET   0.000000  -0.050000   0.130000
                    CHANNELS 3 Xrotation Yrotation Zrotation
                    End Site
                    {
                        OFFSET   0.010000   0.002000   0.060000
                    }
                }
            }
        }
    }
}
MOTION
Frames: 5
Frame Time:   0.008333
 -2.487078   0.802574   4.321112   9.370650   7.781212   1.684621  44.922276   3.426516  -0.852980  -0.714252  -1.430899  -0.103998  -6.729457   0.977249  -3.286568  -8.499624  34.026105  -5.435788 -27.229496  21.948230  26.745063  -0.001884  46.014156   0.001961  -1.032763   1.058980  -8.319780 -12.069905 -24.406536   5.548139 -19.762255 -12.727464 -19.323214  -0.002684 -57.889322  -0.001198  -0.698602  -3.817725  12.115287 -45.830111  -1.966283  -6.674288  64.259988  -0.004467  -0.001328 -31.774022  -2.614117  -4.981615   1.310065   0.000627   0.001081 -56.019128  -3.857476   2.935278  43.714053   0.000401   0.008530 -10.843979  -5.940848  -3.368659  -0.505995   0.000515  -0.001769
 -2.484033   0.803329   4.323818   9.602346   7.606391   1.523309  44.940507   3.445968  -0.865663  -0.687565  -1.418085  -0.121420  -6.877740   0.937220  -3.252652  -8.503416  34.175938  -5.358108 -27.175811  22.013034  26.541023  -0.001909  45.814075   0.001954  -1.067562   1.119472  -8.418922 -12.154750 -24.516688   5.428684 -19.845001 -12.744057 -19.226157  -0.002359 -57.808653  -0.001029  -0.678765  -3.775939  12.191171 -45.733521  -1.701114  -6.527341  64.020700  -0.004146  -0.001167 -31.479538  -2.650580  -4.919804   1.343397   0.000551   0.000913 -55.718897  -3.976391   2.931231  43.569853   0.000175   0.007180 -10.443462  -5.940393  -3.224282  -0.399096   0.000487  -0.001616
 -2.480872   0.803929   4.326642   9.844146   7.439244   1.356330  44.950940   3.459698  -0.871139  -0.674247  -1.410447  -0.136072  -7.022641   0.899059  -3.221705  -8.508390  34.319485  -5.282220 -27.126050  22.070147  26.348787  -0.001882  45.621180   0.001900  -1.106326   1.146165  -8.529618 -12.243274 -24.632975   5.316852 -19.930755 -12.768129 -19.132808  -0.002070 -57.734893  -0.000879  -0.660001  -3.735866  12.297994 -45.650316  -1.444486  -6.393552  63.803246  -0.003844  -0.001013 -31.199077  -2.685103  -4.861954   1.389288   0.000515   0.000796 -55.428319  -4.083117   2.940751  43.446997   0.000017   0.006019 -10.067674  -5.937241  -3.088714  -0.291440   0.000469  -0.001471
 -2.477590   0.804388   4.329586  10.096108   7.281195   1.182088  44.953468   3.467065  -0.868477  -0.670107  -1.408971  -0.144390  -7.159430   0.863495  -3.193306  -8.513837  34.453816  -5.211187 -27.079851  22.123190  26.168899  -0.001813  45.440635   0.001813  -1.144695   1.164026  -8.640277 -12.330007 -24.748498   5.215732 -20.014464 -12.796420 -19.043864  -0.001825 -57.668214  -0.000761  -0.640092  -3.707461  12.413612 -45.578832  -1.199709  -6.273335  63.605981  -0.003559  -0.000867 -30.936020  -2.716802  -4.808014   1.432202   0.000485   0.000696 -55.146486  -4.183520   2.960318  43.336694  -0.000098   0.005041  -9.716719  -5.933431  -2.962016  -0.191963   0.000452  -0.001326
 -2.474185   0.804718   4.332650  10.358145   7.130788   1.000315  44.949404   3.469080  -0.858193  -0.672947  -1.412629  -0.146405  -7.287884   0.830264  -3.166895  -8.519947  34.578492  -5.145111 -27.036944  22.172386  26.000114  -0.001721  45.272173   0.001705  -1.181603   1.180387  -8.749210 -12.413701 -24.861067   5.124176 -20.094946 -12.827022 -18.959392  -0.001619 -57.607646  -0.000669  -0.619056  -3.689492  12.530364 -45.517728  -0.966431  -6.165713  63.426826  -0.003292  -0.000730 -30.689459  -2.745915  -4.757680   1.471751   0.000460   0.000610 -54.873661  -4.278228   2.988580  43.236328  -0.000180   0.004223  -9.389058  -5.929124  -2.843620  -0.100377   0.000437  -0.001186
